<?xml version="1.0" standalone="no"?>
 <!DOCTYPE svg PUBLIC "-//W3C//DTD SVG 1.1//EN" 
 "http://www.w3.org/Graphics/SVG/1.1/DTD/svg11.dtd"> 
<svg
  xmlns:svg="http://www.w3.org/2000/svg"
  xmlns="http://www.w3.org/2000/svg"
  xmlns:xlink="http://www.w3.org/1999/xlink"
  version="1.1"
  width="297.0022mm" height="210.0072mm" viewBox="0.0000 0.0000 297.0022 210.0072">
<title>SVG Image created as hw3.svg date 2024/11/27 21:29:43 </title>
  <desc>Image generated by Eeschema-SVG </desc>
<g style="fill:#000000; fill-opacity:1.0000;stroke:#000000; stroke-opacity:1.0000;
stroke-linecap:round; stroke-linejoin:round;"
 transform="translate(0 0) scale(1 1)">
<path style="fill:#FFFFC2; fill-opacity:1.0000; stroke:none;fill-rule:evenodd;"
d="M 163.8300,101.6000
165.1000,101.6000
" /> 
<path style="fill:#FFFFC2; fill-opacity:1.0000; stroke:none;fill-rule:evenodd;"
d="M 163.8300,96.5200
165.1000,96.5200
" /> 
<path style="fill:#FFFFC2; fill-opacity:1.0000; stroke:none;fill-rule:evenodd;"
d="M 171.4500,104.1400
163.8300,104.1400
" /> 
<path style="fill:#FFFFC2; fill-opacity:1.0000; stroke:none;fill-rule:evenodd;"
d="M 171.4500,93.9800
163.8300,93.9800
" /> 
</g>
<g style="fill:none; 
stroke:#840000; stroke-width:0.2540; stroke-opacity:1; 
stroke-linecap:round; stroke-linejoin:round;">
<path d="M163.8300 104.1400 A8.1320 8.1320 0.0 0 0 163.8300 93.9800" />
<path d="M171.4500 104.1400 A7.3571 7.3571 0.0 0 0 176.5300 99.0600" />
<path style="fill:none; 
stroke:#840000; stroke-width:0.2540; stroke-opacity:1; 
stroke-linecap:round; stroke-linejoin:round;fill:none"
d="M 163.8300,101.6000
165.1000,101.6000
" /> 
<path style="fill:none; 
stroke:#840000; stroke-width:0.2540; stroke-opacity:1; 
stroke-linecap:round; stroke-linejoin:round;fill:none"
d="M 163.8300,96.5200
165.1000,96.5200
" /> 
<path style="fill:none; 
stroke:#840000; stroke-width:0.2540; stroke-opacity:1; 
stroke-linecap:round; stroke-linejoin:round;fill:none"
d="M 171.4500,104.1400
163.8300,104.1400
" /> 
<path style="fill:none; 
stroke:#840000; stroke-width:0.2540; stroke-opacity:1; 
stroke-linecap:round; stroke-linejoin:round;fill:none"
d="M 171.4500,93.9800
163.8300,93.9800
" /> 
<path d="M176.5300 99.0600 A7.1238 7.1238 0.0 0 0 171.4500 93.9800" />
</g>
<g style="fill:none; 
stroke:#840000; stroke-width:0.1524; stroke-opacity:1; 
stroke-linecap:round; stroke-linejoin:round;">
<path d="M163.8300 96.5200
L156.2100 96.5200
" />
<path d="M163.8300 101.6000
L156.2100 101.6000
" />
<path d="M176.5300 99.0600
L184.1500 99.0600
" />
<path style="fill:#FFFFC2; fill-opacity:1.0000; stroke:none;fill-rule:evenodd;"
d="M 204.4700,135.8900
205.7400,135.8900
" /> 
<path style="fill:#FFFFC2; fill-opacity:1.0000; stroke:none;fill-rule:evenodd;"
d="M 204.4700,130.8100
205.7400,130.8100
" /> 
<path style="fill:#FFFFC2; fill-opacity:1.0000; stroke:none;fill-rule:evenodd;"
d="M 212.0900,138.4300
204.4700,138.4300
" /> 
<path style="fill:#FFFFC2; fill-opacity:1.0000; stroke:none;fill-rule:evenodd;"
d="M 212.0900,128.2700
204.4700,128.2700
" /> 
</g>
<g style="fill:none; 
stroke:#840000; stroke-width:0.2540; stroke-opacity:1; 
stroke-linecap:round; stroke-linejoin:round;">
<path d="M204.4700 138.4300 A8.1320 8.1320 0.0 0 0 204.4700 128.2700" />
<path d="M212.0900 138.4300 A7.3571 7.3571 0.0 0 0 217.1700 133.3500" />
<path style="fill:none; 
stroke:#840000; stroke-width:0.2540; stroke-opacity:1; 
stroke-linecap:round; stroke-linejoin:round;fill:none"
d="M 204.4700,135.8900
205.7400,135.8900
" /> 
<path style="fill:none; 
stroke:#840000; stroke-width:0.2540; stroke-opacity:1; 
stroke-linecap:round; stroke-linejoin:round;fill:none"
d="M 204.4700,130.8100
205.7400,130.8100
" /> 
<path style="fill:none; 
stroke:#840000; stroke-width:0.2540; stroke-opacity:1; 
stroke-linecap:round; stroke-linejoin:round;fill:none"
d="M 212.0900,138.4300
204.4700,138.4300
" /> 
<path style="fill:none; 
stroke:#840000; stroke-width:0.2540; stroke-opacity:1; 
stroke-linecap:round; stroke-linejoin:round;fill:none"
d="M 212.0900,128.2700
204.4700,128.2700
" /> 
<path d="M217.1700 133.3500 A7.1238 7.1238 0.0 0 0 212.0900 128.2700" />
</g>
<g style="fill:none; 
stroke:#840000; stroke-width:0.1524; stroke-opacity:1; 
stroke-linecap:round; stroke-linejoin:round;">
<path d="M204.4700 130.8100
L196.8500 130.8100
" />
<path d="M204.4700 135.8900
L196.8500 135.8900
" />
<path d="M217.1700 133.3500
L224.7900 133.3500
" />
</g>
<g style="fill:#FFFFC2; fill-opacity:1.0000; stroke:none;">
<path d="M116.8400 140.9700 A5.0800 5.0800 0.0 0 0 116.8400 130.8100 L 116.8180 135.8900 Z" />
</g>
<g style="fill:none; stroke:none;">
<path d="M116.8400 140.9700 A5.0800 5.0800 0.0 0 0 116.8400 130.8100" />
<path style="fill:#FFFFC2; fill-opacity:1.0000; stroke:none;fill-rule:evenodd;"
d="M 116.8400,140.9700
109.2200,140.9700
109.2200,130.8100
116.8400,130.8100
" /> 
</g>
<g style="fill:none; 
stroke:#840000; stroke-width:0.2540; stroke-opacity:1; 
stroke-linecap:round; stroke-linejoin:round;">
<path d="M116.8400 140.9700 A5.0800 5.0800 0.0 0 0 116.8400 130.8100" />
<path style="fill:none; 
stroke:#840000; stroke-width:0.2540; stroke-opacity:1; 
stroke-linecap:round; stroke-linejoin:round;fill:none"
d="M 116.8400,140.9700
109.2200,140.9700
109.2200,130.8100
116.8400,130.8100
" /> 
</g>
<g style="fill:none; 
stroke:#840000; stroke-width:0.1524; stroke-opacity:1; 
stroke-linecap:round; stroke-linejoin:round;">
<path d="M109.2200 133.3500
L101.6000 133.3500
" />
<path d="M109.2200 138.4300
L101.6000 138.4300
" />
<path d="M121.9200 135.8900
L129.5400 135.8900
" />
</g>
<g style="fill:#FFFFC2; fill-opacity:1.0000; stroke:none;">
<path d="M118.1100 121.9200 A5.0800 5.0800 0.0 0 0 118.1100 111.7600 L 118.0880 116.8400 Z" />
</g>
<g style="fill:none; stroke:none;">
<path d="M118.1100 121.9200 A5.0800 5.0800 0.0 0 0 118.1100 111.7600" />
<path style="fill:#FFFFC2; fill-opacity:1.0000; stroke:none;fill-rule:evenodd;"
d="M 118.1100,121.9200
110.4900,121.9200
110.4900,111.7600
118.1100,111.7600
" /> 
</g>
<g style="fill:none; 
stroke:#840000; stroke-width:0.2540; stroke-opacity:1; 
stroke-linecap:round; stroke-linejoin:round;">
<path d="M118.1100 121.9200 A5.0800 5.0800 0.0 0 0 118.1100 111.7600" />
<path style="fill:none; 
stroke:#840000; stroke-width:0.2540; stroke-opacity:1; 
stroke-linecap:round; stroke-linejoin:round;fill:none"
d="M 118.1100,121.9200
110.4900,121.9200
110.4900,111.7600
118.1100,111.7600
" /> 
</g>
<g style="fill:none; 
stroke:#840000; stroke-width:0.1524; stroke-opacity:1; 
stroke-linecap:round; stroke-linejoin:round;">
<path d="M110.4900 114.3000
L102.8700 114.3000
" />
<path d="M110.4900 119.3800
L102.8700 119.3800
" />
<path d="M123.1900 116.8400
L130.8100 116.8400
" />
<path style="fill:#FFFFC2; fill-opacity:1.0000; stroke:none;fill-rule:evenodd;"
d="M 102.8700,59.6900
104.1400,59.6900
" /> 
<path style="fill:#FFFFC2; fill-opacity:1.0000; stroke:none;fill-rule:evenodd;"
d="M 102.8700,54.6100
104.1400,54.6100
" /> 
<path style="fill:#FFFFC2; fill-opacity:1.0000; stroke:none;fill-rule:evenodd;"
d="M 110.4900,62.2300
102.8700,62.2300
" /> 
<path style="fill:#FFFFC2; fill-opacity:1.0000; stroke:none;fill-rule:evenodd;"
d="M 110.4900,52.0700
102.8700,52.0700
" /> 
</g>
<g style="fill:none; 
stroke:#840000; stroke-width:0.2540; stroke-opacity:1; 
stroke-linecap:round; stroke-linejoin:round;">
<path d="M101.6000 62.2300 A8.1320 8.1320 0.0 0 0 101.6000 52.0700" />
<path d="M102.8700 62.2300 A8.1320 8.1320 0.0 0 0 102.8700 52.0700" />
<path d="M110.4900 62.2300 A7.3571 7.3571 0.0 0 0 115.5700 57.1500" />
<path style="fill:none; 
stroke:#840000; stroke-width:0.2540; stroke-opacity:1; 
stroke-linecap:round; stroke-linejoin:round;fill:none"
d="M 102.8700,59.6900
104.1400,59.6900
" /> 
<path style="fill:none; 
stroke:#840000; stroke-width:0.2540; stroke-opacity:1; 
stroke-linecap:round; stroke-linejoin:round;fill:none"
d="M 102.8700,54.6100
104.1400,54.6100
" /> 
<path style="fill:none; 
stroke:#840000; stroke-width:0.2540; stroke-opacity:1; 
stroke-linecap:round; stroke-linejoin:round;fill:none"
d="M 110.4900,62.2300
102.8700,62.2300
" /> 
<path style="fill:none; 
stroke:#840000; stroke-width:0.2540; stroke-opacity:1; 
stroke-linecap:round; stroke-linejoin:round;fill:none"
d="M 110.4900,52.0700
102.8700,52.0700
" /> 
<path d="M115.5700 57.1500 A7.1238 7.1238 0.0 0 0 110.4900 52.0700" />
</g>
<g style="fill:none; 
stroke:#840000; stroke-width:0.1524; stroke-opacity:1; 
stroke-linecap:round; stroke-linejoin:round;">
<path d="M102.8700 54.6100
L95.2500 54.6100
" />
<path d="M102.8700 59.6900
L95.2500 59.6900
" />
<path d="M115.5700 57.1500
L123.1900 57.1500
" />
</g>
<g style="fill:#FFFFC2; fill-opacity:1.0000; stroke:none;">
<path d="M118.1100 101.6000 A5.0800 5.0800 0.0 0 0 118.1100 91.4400 L 118.0880 96.5200 Z" />
</g>
<g style="fill:none; stroke:none;">
<path d="M118.1100 101.6000 A5.0800 5.0800 0.0 0 0 118.1100 91.4400" />
<path style="fill:#FFFFC2; fill-opacity:1.0000; stroke:none;fill-rule:evenodd;"
d="M 118.1100,101.6000
110.4900,101.6000
110.4900,91.4400
118.1100,91.4400
" /> 
</g>
<g style="fill:none; 
stroke:#840000; stroke-width:0.2540; stroke-opacity:1; 
stroke-linecap:round; stroke-linejoin:round;">
<path d="M118.1100 101.6000 A5.0800 5.0800 0.0 0 0 118.1100 91.4400" />
<path style="fill:none; 
stroke:#840000; stroke-width:0.2540; stroke-opacity:1; 
stroke-linecap:round; stroke-linejoin:round;fill:none"
d="M 118.1100,101.6000
110.4900,101.6000
110.4900,91.4400
118.1100,91.4400
" /> 
</g>
<g style="fill:none; 
stroke:#840000; stroke-width:0.1524; stroke-opacity:1; 
stroke-linecap:round; stroke-linejoin:round;">
<path d="M110.4900 93.9800
L102.8700 93.9800
" />
<path d="M110.4900 99.0600
L102.8700 99.0600
" />
<path d="M123.1900 96.5200
L130.8100 96.5200
" />
<path style="fill:#FFFFC2; fill-opacity:1.0000; stroke:none;fill-rule:evenodd;"
d="M 133.3500,73.6600
134.6200,73.6600
" /> 
<path style="fill:#FFFFC2; fill-opacity:1.0000; stroke:none;fill-rule:evenodd;"
d="M 133.3500,68.5800
134.6200,68.5800
" /> 
<path style="fill:#FFFFC2; fill-opacity:1.0000; stroke:none;fill-rule:evenodd;"
d="M 140.9700,76.2000
133.3500,76.2000
" /> 
<path style="fill:#FFFFC2; fill-opacity:1.0000; stroke:none;fill-rule:evenodd;"
d="M 140.9700,66.0400
133.3500,66.0400
" /> 
</g>
<g style="fill:none; 
stroke:#840000; stroke-width:0.2540; stroke-opacity:1; 
stroke-linecap:round; stroke-linejoin:round;">
<path d="M132.0800 76.2000 A8.1320 8.1320 0.0 0 0 132.0800 66.0400" />
<path d="M133.3500 76.2000 A8.1320 8.1320 0.0 0 0 133.3500 66.0400" />
<path d="M140.9700 76.2000 A7.3571 7.3571 0.0 0 0 146.0500 71.1200" />
<path style="fill:none; 
stroke:#840000; stroke-width:0.2540; stroke-opacity:1; 
stroke-linecap:round; stroke-linejoin:round;fill:none"
d="M 133.3500,73.6600
134.6200,73.6600
" /> 
<path style="fill:none; 
stroke:#840000; stroke-width:0.2540; stroke-opacity:1; 
stroke-linecap:round; stroke-linejoin:round;fill:none"
d="M 133.3500,68.5800
134.6200,68.5800
" /> 
<path style="fill:none; 
stroke:#840000; stroke-width:0.2540; stroke-opacity:1; 
stroke-linecap:round; stroke-linejoin:round;fill:none"
d="M 140.9700,76.2000
133.3500,76.2000
" /> 
<path style="fill:none; 
stroke:#840000; stroke-width:0.2540; stroke-opacity:1; 
stroke-linecap:round; stroke-linejoin:round;fill:none"
d="M 140.9700,66.0400
133.3500,66.0400
" /> 
<path d="M146.0500 71.1200 A7.1238 7.1238 0.0 0 0 140.9700 66.0400" />
</g>
<g style="fill:none; 
stroke:#840000; stroke-width:0.1524; stroke-opacity:1; 
stroke-linecap:round; stroke-linejoin:round;">
<path d="M146.0500 71.1200
L153.6700 71.1200
" />
<path d="M133.3500 68.5800
L125.7300 68.5800
" />
<path d="M133.3500 73.6600
L125.7300 73.6600
" />
</g>
<g style="fill:none; 
stroke:#0F0F0F; stroke-width:0.2540; stroke-opacity:1; 
stroke-linecap:round; stroke-linejoin:round;">
<text x="57.1500" y="38.8302"
textLength="2.2860" font-size="2.5400" lengthAdjust="spacingAndGlyphs"
text-anchor="start" opacity="0" stroke-opacity="0">B</text>
<g class="stroked-text"><desc>B</desc>
<path d="M58.4056 37.5859
L58.6778 37.6766
" />
<path d="M58.6778 37.6766
L58.7685 37.7673
" />
<path d="M58.7685 37.7673
L58.8592 37.9488
" />
<path d="M58.8592 37.9488
L58.8592 38.2209
" />
<path d="M58.8592 38.2209
L58.7685 38.4023
" />
<path d="M58.7685 38.4023
L58.6778 38.4931
" />
<path d="M58.6778 38.4931
L58.4963 38.5838
" />
<path d="M58.4963 38.5838
L57.7706 38.5838
" />
<path d="M57.7706 38.5838
L57.7706 36.6788
" />
<path d="M57.7706 36.6788
L58.4056 36.6788
" />
<path d="M58.4056 36.6788
L58.5871 36.7695
" />
<path d="M58.5871 36.7695
L58.6778 36.8602
" />
<path d="M58.6778 36.8602
L58.7685 37.0416
" />
<path d="M58.7685 37.0416
L58.7685 37.2231
" />
<path d="M58.7685 37.2231
L58.6778 37.4045
" />
<path d="M58.6778 37.4045
L58.5871 37.4952
" />
<path d="M58.5871 37.4952
L58.4056 37.5859
" />
<path d="M58.4056 37.5859
L57.7706 37.5859
" />
</g><text x="44.4500" y="38.8302"
textLength="2.0139" font-size="2.5400" lengthAdjust="spacingAndGlyphs"
text-anchor="start" opacity="0" stroke-opacity="0">A</text>
<g class="stroked-text"><desc>A</desc>
<path d="M44.9799 38.0395
L45.8871 38.0395
" />
<path d="M44.7985 38.5838
L45.4335 36.6788
" />
<path d="M45.4335 36.6788
L46.0685 38.5838
" />
</g><text x="68.5800" y="38.8302"
textLength="2.2860" font-size="2.5400" lengthAdjust="spacingAndGlyphs"
text-anchor="start" opacity="0" stroke-opacity="0">C</text>
<g class="stroked-text"><desc>C</desc>
<path d="M70.2892 38.4023
L70.1985 38.4931
" />
<path d="M70.1985 38.4931
L69.9263 38.5838
" />
<path d="M69.9263 38.5838
L69.7449 38.5838
" />
<path d="M69.7449 38.5838
L69.4728 38.4931
" />
<path d="M69.4728 38.4931
L69.2913 38.3116
" />
<path d="M69.2913 38.3116
L69.2006 38.1302
" />
<path d="M69.2006 38.1302
L69.1099 37.7673
" />
<path d="M69.1099 37.7673
L69.1099 37.4952
" />
<path d="M69.1099 37.4952
L69.2006 37.1323
" />
<path d="M69.2006 37.1323
L69.2913 36.9509
" />
<path d="M69.2913 36.9509
L69.4728 36.7695
" />
<path d="M69.4728 36.7695
L69.7449 36.6788
" />
<path d="M69.7449 36.6788
L69.9263 36.6788
" />
<path d="M69.9263 36.6788
L70.1985 36.7695
" />
<path d="M70.1985 36.7695
L70.2892 36.8602
" />
</g><text x="247.6500" y="132.7150"
textLength="12.2282" font-size="3.3866" lengthAdjust="spacingAndGlyphs"
text-anchor="end" opacity="0" stroke-opacity="0">CARRY</text>
<g class="stroked-text"><desc>CARRY</desc>
<path d="M237.5648 132.1489
L237.4439 132.2699
" />
<path d="M237.4439 132.2699
L237.0810 132.3908
" />
<path d="M237.0810 132.3908
L236.8391 132.3908
" />
<path d="M236.8391 132.3908
L236.4763 132.2699
" />
<path d="M236.4763 132.2699
L236.2344 132.0279
" />
<path d="M236.2344 132.0279
L236.1134 131.7860
" />
<path d="M236.1134 131.7860
L235.9925 131.3022
" />
<path d="M235.9925 131.3022
L235.9925 130.9394
" />
<path d="M235.9925 130.9394
L236.1134 130.4556
" />
<path d="M236.1134 130.4556
L236.2344 130.2137
" />
<path d="M236.2344 130.2137
L236.4763 129.9718
" />
<path d="M236.4763 129.9718
L236.8391 129.8508
" />
<path d="M236.8391 129.8508
L237.0810 129.8508
" />
<path d="M237.0810 129.8508
L237.4439 129.9718
" />
<path d="M237.4439 129.9718
L237.5648 130.0927
" />
<path d="M238.5325 131.6651
L239.7420 131.6651
" />
<path d="M238.2906 132.3908
L239.1372 129.8508
" />
<path d="M239.1372 129.8508
L239.9839 132.3908
" />
<path d="M242.2819 132.3908
L241.4353 131.1813
" />
<path d="M240.8305 132.3908
L240.8305 129.8508
" />
<path d="M240.8305 129.8508
L241.7981 129.8508
" />
<path d="M241.7981 129.8508
L242.0400 129.9718
" />
<path d="M242.0400 129.9718
L242.1610 130.0927
" />
<path d="M242.1610 130.0927
L242.2819 130.3346
" />
<path d="M242.2819 130.3346
L242.2819 130.6975
" />
<path d="M242.2819 130.6975
L242.1610 130.9394
" />
<path d="M242.1610 130.9394
L242.0400 131.0603
" />
<path d="M242.0400 131.0603
L241.7981 131.1813
" />
<path d="M241.7981 131.1813
L240.8305 131.1813
" />
<path d="M244.8219 132.3908
L243.9753 131.1813
" />
<path d="M243.3705 132.3908
L243.3705 129.8508
" />
<path d="M243.3705 129.8508
L244.3381 129.8508
" />
<path d="M244.3381 129.8508
L244.5800 129.9718
" />
<path d="M244.5800 129.9718
L244.7010 130.0927
" />
<path d="M244.7010 130.0927
L244.8219 130.3346
" />
<path d="M244.8219 130.3346
L244.8219 130.6975
" />
<path d="M244.8219 130.6975
L244.7010 130.9394
" />
<path d="M244.7010 130.9394
L244.5800 131.0603
" />
<path d="M244.5800 131.0603
L244.3381 131.1813
" />
<path d="M244.3381 131.1813
L243.3705 131.1813
" />
<path d="M246.3943 131.1813
L246.3943 132.3908
" />
<path d="M245.5477 129.8508
L246.3943 131.1813
" />
<path d="M246.3943 131.1813
L247.2410 129.8508
" />
</g><text x="247.6500" y="70.4850"
textLength="8.2369" font-size="3.3866" lengthAdjust="spacingAndGlyphs"
text-anchor="end" opacity="0" stroke-opacity="0">SUM</text>
<g class="stroked-text"><desc>SUM</desc>
<path d="M239.9838 70.0399
L240.3466 70.1608
" />
<path d="M240.3466 70.1608
L240.9514 70.1608
" />
<path d="M240.9514 70.1608
L241.1933 70.0399
" />
<path d="M241.1933 70.0399
L241.3142 69.9189
" />
<path d="M241.3142 69.9189
L241.4352 69.6770
" />
<path d="M241.4352 69.6770
L241.4352 69.4351
" />
<path d="M241.4352 69.4351
L241.3142 69.1932
" />
<path d="M241.3142 69.1932
L241.1933 69.0722
" />
<path d="M241.1933 69.0722
L240.9514 68.9513
" />
<path d="M240.9514 68.9513
L240.4676 68.8303
" />
<path d="M240.4676 68.8303
L240.2257 68.7094
" />
<path d="M240.2257 68.7094
L240.1047 68.5884
" />
<path d="M240.1047 68.5884
L239.9838 68.3465
" />
<path d="M239.9838 68.3465
L239.9838 68.1046
" />
<path d="M239.9838 68.1046
L240.1047 67.8627
" />
<path d="M240.1047 67.8627
L240.2257 67.7418
" />
<path d="M240.2257 67.7418
L240.4676 67.6208
" />
<path d="M240.4676 67.6208
L241.0723 67.6208
" />
<path d="M241.0723 67.6208
L241.4352 67.7418
" />
<path d="M242.5237 67.6208
L242.5237 69.6770
" />
<path d="M242.5237 69.6770
L242.6447 69.9189
" />
<path d="M242.6447 69.9189
L242.7656 70.0399
" />
<path d="M242.7656 70.0399
L243.0075 70.1608
" />
<path d="M243.0075 70.1608
L243.4913 70.1608
" />
<path d="M243.4913 70.1608
L243.7332 70.0399
" />
<path d="M243.7332 70.0399
L243.8542 69.9189
" />
<path d="M243.8542 69.9189
L243.9751 69.6770
" />
<path d="M243.9751 69.6770
L243.9751 67.6208
" />
<path d="M245.1847 70.1608
L245.1847 67.6208
" />
<path d="M245.1847 67.6208
L246.0314 69.4351
" />
<path d="M246.0314 69.4351
L246.8780 67.6208
" />
<path d="M246.8780 67.6208
L246.8780 70.1608
" />
</g></g>
<g style="fill:none; 
stroke:#009600; stroke-width:0.1524; stroke-opacity:1; 
stroke-linecap:round; stroke-linejoin:round;">
<path d="M44.4500 133.3500
L101.6000 133.3500
" />
<path d="M153.6700 71.1200
L247.6500 71.1200
" />
<path d="M123.1900 57.1500
L123.1900 68.5800
" />
<path d="M123.1900 68.5800
L125.7300 68.5800
" />
<path d="M224.7900 133.3500
L247.6500 133.3500
" />
<path d="M156.2100 96.5200
L130.8100 96.5200
" />
<path d="M184.1500 130.8100
L184.1500 99.0600
" />
<path d="M130.8100 116.8400
L156.2100 116.8400
" />
<path d="M156.2100 116.8400
L156.2100 101.6000
" />
<path d="M196.8500 130.8100
L184.1500 130.8100
" />
<path d="M196.8500 135.8900
L129.5400 135.8900
" />
<path d="M57.1500 39.3700
L57.1500 59.6900
" />
<path d="M44.4500 93.9800
L44.4500 133.3500
" />
<path d="M44.4500 133.3500
L44.4500 138.4300
" />
<path d="M57.1500 114.3000
L57.1500 138.4300
" />
<path d="M57.1500 99.0600
L57.1500 114.3000
" />
<path d="M68.5800 73.6600
L125.7300 73.6600
" />
<path d="M44.4500 54.6100
L95.2500 54.6100
" />
<path d="M68.5800 39.3700
L68.5800 73.6600
" />
<path d="M57.1500 59.6900
L95.2500 59.6900
" />
<path d="M44.4500 39.3700
L44.4500 54.6100
" />
<path d="M57.1500 99.0600
L102.8700 99.0600
" />
<path d="M57.1500 59.6900
L57.1500 99.0600
" />
<path d="M44.4500 54.6100
L44.4500 93.9800
" />
<path d="M68.5800 73.6600
L68.5800 119.3800
" />
<path d="M44.4500 93.9800
L102.8700 93.9800
" />
<path d="M68.5800 119.3800
L102.8700 119.3800
" />
<path d="M57.1500 114.3000
L102.8700 114.3000
" />
<path d="M68.5800 119.3800
L68.5800 138.4300
" />
<path d="M68.5800 138.4300
L101.6000 138.4300
" />
</g>
<g style="fill:#009600; fill-opacity:1.0000; 
stroke:#009600; stroke-width:0.1524; stroke-opacity:1; 
stroke-linecap:round; stroke-linejoin:round;">
<circle cx="44.4500" cy="133.3500" r="0.4572" /> 
<circle cx="44.4500" cy="54.6100" r="0.4572" /> 
<circle cx="57.1500" cy="99.0600" r="0.4572" /> 
<circle cx="44.4500" cy="93.9800" r="0.4572" /> 
<circle cx="68.5800" cy="73.6600" r="0.4572" /> 
<circle cx="57.1500" cy="114.3000" r="0.4572" /> 
<circle cx="57.1500" cy="59.6900" r="0.4572" /> 
<circle cx="68.5800" cy="119.3800" r="0.4572" /> 
</g> 
</svg>
